<svg version="1.1" id="Layer_1" xmlns="http://www.w3.org/2000/svg" xmlns:xlink="http://www.w3.org/1999/xlink" x="0px" y="0px"
	 width="202" height="42" viewBox="0 0 2508 627" enable-background="new 0 0 2508 627" xml:space="preserve">
<path fill="none" opacity="1.000000" stroke="none" 
	d="
M303.760376,508.160553 
	C303.760376,508.160553 303.611328,508.266571 303.769775,508.814331 
	C304.183044,509.190094 304.596313,509.565826 305.222504,510.530365 
	C306.145508,511.355042 307.068542,512.179688 308.264404,513.617859 
	C318.510284,521.684143 328.756165,529.750427 339.470581,538.343811 
	C340.428619,538.978088 341.359467,539.658630 342.348602,540.239990 
	C368.896820,555.845276 397.736481,563.801819 428.365326,563.482544 
	C489.141754,562.848877 538.288757,538.737427 573.594543,488.489532 
	C582.879822,475.274536 590.338806,461.013611 595.393066,445.333160 
	C593.704468,444.381500 592.270264,443.593903 590.855652,442.772552 
	C582.967651,438.192902 574.729370,432.970459 571.627014,424.495575 
	C567.541382,413.334686 560.056885,412.178711 550.445801,413.336761 
	C549.294617,413.475433 548.139893,413.584717 546.072144,413.488159 
	C535.409729,413.432220 524.711304,413.890259 514.097107,413.146301 
	C506.561035,412.618134 502.852051,415.700348 500.561829,422.344757 
	C498.863892,427.270813 492.320007,431.485046 487.796967,431.327271 
	C482.715363,431.149963 478.133362,427.466858 476.005859,421.999664 
	C474.792908,418.882629 473.412628,415.830658 472.137299,412.373138 
	C472.137299,412.373138 472.029327,412.011475 472.288727,411.652344 
	C472.195435,411.101166 472.102142,410.549957 472.021179,409.221344 
	C468.533966,397.982788 465.046783,386.744202 461.549377,374.916138 
	C459.045074,366.834259 456.610046,358.729492 453.958862,350.696075 
	C453.578308,349.543030 452.154907,348.734100 451.214111,347.765930 
	C450.456360,348.720764 449.239380,349.578461 449.013611,350.645813 
	C447.230957,359.073792 445.637329,367.541779 443.570404,376.630188 
	C442.864471,379.855438 442.125519,383.073853 441.458405,386.307159 
	C438.660217,399.869476 435.883484,413.436249 432.851105,427.755005 
	C432.034546,431.627563 431.148224,435.486908 430.413513,439.374939 
	C427.227631,456.233612 424.086029,473.100708 420.514618,490.607391 
	C420.211761,492.389191 419.975739,494.185394 419.595032,495.950409 
	C417.263397,506.760345 408.981384,510.523560 399.034332,504.635895 
	C397.378784,501.803680 395.336273,499.124084 394.146912,496.108032 
	C391.538361,489.493042 389.361877,482.707672 386.989319,475.232391 
	C383.615082,465.488617 380.240845,455.744873 376.890167,445.247925 
	C373.951569,437.156219 371.012970,429.064514 368.035553,420.198700 
	C365.936096,414.213867 363.836670,408.229034 361.702667,402.145599 
	C361.026001,402.540558 360.838898,402.588623 360.755066,402.708801 
	C360.281036,403.388306 359.729309,404.038452 359.389984,404.783295 
	C356.291199,411.585083 351.071228,413.733765 343.670105,413.508423 
	C328.694519,413.052399 313.693024,413.510071 298.704346,413.367615 
	C295.573853,413.337860 293.957336,414.294922 292.723633,417.189423 
	C288.206512,427.787506 280.669434,435.826813 270.932190,441.872284 
	C269.289154,442.892334 267.653381,443.924164 265.441376,445.309296 
	C269.334229,453.593536 273.063324,461.529266 276.918182,470.137146 
	C280.560333,476.106689 284.202454,482.076202 288.006744,488.730530 
	C292.814026,494.867249 297.621307,501.003937 302.727905,507.706696 
	C303.085510,507.917450 303.443146,508.128174 303.760376,508.160553 
M385.207245,390.556488 
	C385.486603,391.031464 385.765930,391.506470 386.007416,392.572266 
	C386.287781,393.071747 386.568146,393.571259 386.869598,394.845184 
	C391.500153,408.490082 396.130707,422.134979 400.761261,435.779877 
	C401.593719,435.757690 402.426178,435.735474 403.258636,435.713287 
	C406.756714,419.475677 410.254791,403.238068 414.046143,386.257080 
	C416.628571,374.284424 419.210999,362.311737 422.053528,349.654907 
	C424.061676,340.449829 426.069824,331.244781 428.550720,321.445618 
	C431.000488,310.442169 433.355927,299.416534 435.937347,288.444061 
	C437.364990,282.375763 443.223236,277.355042 448.480408,277.241272 
	C453.565399,277.131256 458.832886,281.286682 460.992767,287.091827 
	C461.503296,288.463989 462.065460,289.816895 462.810272,291.929169 
	C465.149261,299.310791 467.488251,306.692413 469.838287,314.582367 
	C469.933594,314.722473 470.028931,314.862610 470.076447,315.578247 
	C470.296906,316.090271 470.517365,316.602295 470.800629,317.914978 
	C472.543243,323.277863 474.285858,328.640717 476.034637,334.781067 
	C479.025177,344.187622 482.015717,353.594147 485.013824,363.783142 
	C487.467316,371.782715 489.920837,379.782288 492.370239,387.768402 
	C493.053711,387.564484 493.269531,387.567596 493.347351,387.465546 
	C493.744751,386.944580 494.212799,386.441711 494.464539,385.850891 
	C497.635986,378.408295 503.288330,376.002991 511.229187,376.178955 
	C528.033752,376.551422 544.855225,376.287933 561.666260,376.044678 
	C563.394409,376.019684 566.013062,374.798462 566.671814,373.402435 
	C572.646423,360.741241 581.635986,351.140686 594.068115,344.658905 
	C595.072632,344.135162 596.140259,341.831055 595.779968,340.889435 
	C592.705566,332.855103 589.307556,324.944611 585.937561,316.278381 
	C580.663513,307.501678 575.389526,298.724945 569.938782,289.283752 
	C564.404114,282.815491 558.869385,276.347260 553.010010,269.249176 
	C546.549316,263.724548 540.088684,258.199921 533.183777,252.132706 
	C436.820160,182.520645 298.803925,228.021667 265.192017,343.369843 
	C278.870605,349.478180 287.929413,360.123749 294.020599,373.672089 
	C294.593018,374.945282 297.052063,376.030823 298.661987,376.068878 
	C308.486206,376.301208 318.318268,376.222961 328.147644,376.212067 
	C333.640503,376.205994 340.283173,378.017273 344.308746,375.564575 
	C348.488556,373.017883 350.164307,366.330750 352.883850,361.425873 
	C356.144165,355.545624 360.132751,353.540192 367.405457,354.846466 
	C372.542999,356.924927 375.005127,361.224731 376.919556,366.849365 
	C379.687683,374.566376 382.455780,382.283417 385.207245,390.556488 
M665.772339,360.656189 
	C665.837463,361.106506 665.902588,361.556824 665.762817,362.863251 
	C665.825195,364.908325 665.887634,366.953400 665.749084,369.918274 
	C665.741394,408.886658 665.692932,447.855133 665.752319,486.823425 
	C665.769043,497.774597 673.713379,507.148010 684.082947,508.530853 
	C687.358887,508.967712 690.731323,508.719666 694.059570,508.719635 
	C708.121033,508.719452 717.547913,499.307007 717.550781,485.232819 
	C717.561279,433.607819 717.565979,381.982788 717.539795,330.357788 
	C717.537048,324.877686 717.316467,319.397675 717.398621,313.216400 
	C717.331055,312.496979 717.263550,311.777557 717.391907,310.246918 
	C717.328430,309.142456 717.264954,308.038025 717.205627,306.114990 
	C717.205139,305.128632 717.096313,304.128387 717.220642,303.158020 
	C718.986755,289.371704 709.198303,277.563751 694.823608,276.176331 
	C680.466309,274.790588 666.385071,285.157257 665.883057,298.156891 
	C665.435303,309.752502 665.903076,321.383484 665.766907,333.918701 
	C665.832520,342.610443 665.898132,351.302216 665.772339,360.656189 
M189.713913,443.305389 
	C189.754822,395.806580 189.825241,348.307739 189.819077,300.808929 
	C189.817154,286.073608 179.391220,276.070923 164.315018,276.097778 
	C149.147980,276.124786 139.157684,286.005310 139.155472,301.010498 
	C139.148285,349.843018 139.145172,398.675568 139.158096,447.508087 
	C139.159012,451.000488 139.302216,454.492859 139.149475,458.899109 
	C139.150803,468.217224 139.102432,477.535645 139.165573,486.853333 
	C139.252075,499.619202 148.522308,508.822235 161.242355,508.858704 
	C163.738403,508.865845 166.236511,508.898071 168.730316,508.816589 
	C179.297394,508.471313 189.346222,499.559937 189.661255,489.015106 
	C190.107956,474.062836 189.616684,459.082611 189.713913,443.305389 
M2053.267822,310.939911 
	C2053.266602,351.482544 2053.250488,392.025208 2053.297607,432.567780 
	C2053.301025,435.374176 2053.776611,438.180054 2053.888184,441.820435 
	C2056.437988,459.286102 2062.614014,474.934326 2076.509521,486.664459 
	C2095.107422,502.363892 2116.991455,505.856445 2140.340576,503.627014 
	C2160.260742,501.725037 2177.208496,493.838959 2190.257812,478.323242 
	C2191.375732,476.993958 2192.488525,475.660461 2194.338379,473.451569 
	C2194.338379,482.344360 2194.338379,490.088165 2194.338379,498.052612 
	C2212.338135,498.052612 2229.888916,498.052612 2247.472656,498.052612 
	C2247.472656,433.517303 2247.472656,369.317963 2247.472656,305.189941 
	C2228.786621,305.189941 2210.510498,305.189941 2191.699463,305.189941 
	C2191.699463,307.931000 2191.698242,310.383087 2191.699707,312.835205 
	C2191.720703,345.167816 2191.885498,377.501160 2191.722168,409.832825 
	C2191.558105,442.286163 2172.579834,460.563843 2142.241211,457.890045 
	C2126.963135,456.543579 2115.433350,447.704742 2111.190186,433.011353 
	C2109.322510,426.544281 2108.211426,419.630066 2108.154785,412.907074 
	C2107.869873,379.077026 2108.046631,345.243103 2108.061035,311.410522 
	C2108.062012,309.326935 2108.061279,307.243347 2108.061279,305.271301 
	C2089.330811,305.271301 2071.406006,305.271301 2053.105713,305.271301 
	C2053.250732,307.116211 2053.365479,308.572418 2053.267822,310.939911 
M1323.866211,328.500000 
	C1323.866211,384.953705 1323.866211,441.407440 1323.866211,497.948120 
	C1342.251587,497.948120 1360.262085,497.948120 1378.900879,497.948120 
	C1378.900879,437.071869 1378.900879,376.629974 1378.900879,315.187195 
	C1380.737427,317.554779 1381.892334,318.956604 1382.954590,320.425568 
	C1424.518066,377.904022 1466.113770,435.359314 1507.539062,492.937225 
	C1510.344604,496.836823 1513.052734,498.859467 1518.043945,498.478271 
	C1524.338623,497.997467 1530.699707,498.393127 1537.032104,498.396454 
	C1548.671387,498.402527 1560.310669,498.398224 1572.084473,498.398224 
	C1572.084473,408.702240 1572.084473,319.503601 1572.084473,230.237549 
	C1552.925293,230.237549 1534.173950,230.237549 1514.987793,230.237549 
	C1514.987793,290.041626 1514.987793,349.560699 1514.987793,410.172760 
	C1513.932739,408.811035 1513.552368,408.345154 1513.198486,407.859863 
	C1470.904541,349.862671 1428.589966,291.880463 1386.391846,233.813690 
	C1384.409790,231.086304 1382.485474,229.928726 1379.095215,229.981964 
	C1366.600098,230.178101 1354.099731,230.049652 1341.601440,230.044983 
	C1335.822144,230.042831 1330.042725,230.044601 1323.868896,230.044601 
	C1323.868896,262.912598 1323.868896,295.206299 1323.866211,328.500000 
M328.355194,236.727936 
	C329.790436,235.696030 331.225708,234.664124 331.963287,234.133850 
	C327.044708,221.177887 321.722870,209.103790 317.873077,196.577286 
	C311.618347,176.225525 319.417084,157.729736 338.596619,148.503296 
	C349.604065,143.208084 361.387756,139.014603 373.260254,136.127029 
	C406.819397,127.965012 440.863007,127.494469 475.012451,132.114395 
	C492.106689,134.426987 508.651855,138.744583 524.265259,146.220520 
	C543.803955,155.575882 552.193909,173.090103 546.881897,194.109833 
	C545.216858,200.698303 542.778809,207.129807 540.232117,213.446716 
	C537.456238,220.331924 534.143250,227.000549 531.561340,232.671906 
	C545.038391,244.227417 557.989502,255.332001 571.064514,266.542816 
	C582.600891,243.841232 594.530518,220.536057 599.583496,194.615967 
	C605.760986,162.928131 598.293457,135.112381 574.063171,112.829498 
	C557.538696,97.633102 537.280334,89.478401 515.953918,84.146362 
	C463.637085,71.066109 411.063782,71.320671 358.500336,82.779945 
	C336.706879,87.531105 315.737305,94.746773 297.443512,107.880775 
	C268.526398,128.641785 257.193115,157.064453 262.943756,192.029770 
	C266.769592,215.291718 276.959198,236.340836 287.318054,257.246796 
	C288.968201,260.577087 290.702881,263.865540 291.883057,266.167847 
	C304.025909,256.319275 315.873322,246.710312 328.355194,236.727936 
M1667.547852,499.002960 
	C1715.427490,513.813538 1774.619019,501.676880 1800.684692,464.664398 
	C1786.786865,455.592590 1772.899170,446.527527 1758.952026,437.423584 
	C1740.330933,462.348145 1715.836792,467.165039 1688.174927,457.535370 
	C1670.300293,451.312714 1659.941895,437.479095 1655.760986,418.173645 
	C1706.248413,418.173645 1755.958862,418.173645 1805.678101,418.173645 
	C1805.678101,408.311096 1806.113770,398.961731 1805.595825,389.665466 
	C1804.080566,362.462158 1793.988892,339.165680 1772.614014,321.611511 
	C1737.328491,292.633331 1678.952148,291.979126 1640.886353,319.698822 
	C1608.017456,343.634186 1593.786255,384.933655 1602.733765,426.941010 
	C1610.318359,462.550171 1632.179321,486.646179 1667.547852,499.002960 
M1003.500000,390.001953 
	C1011.270081,390.001953 1019.040222,390.001953 1026.773926,390.001953 
	C1026.773926,373.948975 1026.773926,358.572083 1026.773926,342.674927 
	C990.448059,342.674927 954.552185,342.674927 918.593750,342.674927 
	C918.593750,320.619141 918.593750,299.092255 918.593750,277.049133 
	C960.230652,277.049133 1001.447205,277.049133 1042.705566,277.049133 
	C1042.705566,261.286285 1042.705566,246.045807 1042.705566,230.714539 
	C982.042358,230.714539 921.682007,230.714539 861.309021,230.714539 
	C861.309021,320.006958 861.309021,408.916016 861.309021,497.984436 
	C880.288696,497.984436 899.010315,497.984436 918.207520,497.984436 
	C918.207520,461.947357 918.207520,426.212677 918.207520,390.000214 
	C946.621338,390.000214 974.560669,390.000214 1003.500000,390.001953 
M1889.628296,404.086304 
	C1865.081421,435.203247 1840.534546,466.320160 1815.299927,498.308929 
	C1836.468994,498.308929 1856.119995,498.378326 1875.768188,498.176178 
	C1877.326172,498.160126 1879.276001,496.578461 1880.347168,495.187805 
	C1888.780762,484.239502 1897.051758,473.165802 1905.358398,462.119934 
	C1910.816040,454.862671 1916.250000,447.587585 1921.972778,439.948944 
	C1923.723999,442.152466 1925.091919,443.793854 1926.374023,445.499756 
	C1938.581177,461.741028 1950.826050,477.954529 1962.922607,494.277863 
	C1965.094604,497.208801 1967.391602,498.471771 1971.187378,498.425598 
	C1990.014160,498.196472 2008.845215,498.316925 2027.674683,498.295044 
	C2028.892212,498.293640 2030.109375,498.131836 2032.176636,497.983765 
	C2006.895874,464.973816 1982.130981,432.637390 1957.178223,400.055695 
	C1981.950806,368.623566 2006.742554,337.167206 2031.572266,305.662567 
	C2030.982056,305.290375 2030.727295,304.989044 2030.472290,304.988922 
	C2010.311279,304.978485 1990.149658,304.928497 1969.990356,305.121887 
	C1968.364136,305.137482 1966.303833,306.472290 1965.213989,307.817108 
	C1960.286621,313.897644 1955.594727,320.171448 1950.894409,326.432983 
	C1942.445679,337.688599 1934.051758,348.985382 1925.375488,360.612427 
	C1912.123535,342.930939 1899.192383,325.800140 1886.444336,308.534149 
	C1884.577026,306.005005 1882.779541,304.847412 1879.533447,304.875793 
	C1860.538696,305.041779 1841.541870,304.951416 1822.545654,304.972961 
	C1821.341187,304.974335 1820.136963,305.189972 1818.617065,305.336273 
	C1819.141968,306.209320 1819.346313,306.643677 1819.633545,307.013580 
	C1843.017212,337.135651 1866.393188,367.263794 1889.827515,397.346436 
	C1891.501465,399.495087 1892.864624,401.339661 1889.628296,404.086304 
M2270.849121,471.320526 
	C2280.626709,480.465057 2291.101562,488.564056 2303.406250,494.160980 
	C2326.473633,504.653656 2350.789307,505.530762 2375.411621,503.548401 
	C2390.501465,502.333527 2404.899170,498.502258 2417.882812,490.231628 
	C2451.155273,469.037720 2453.080566,417.382690 2416.911621,396.222687 
	C2403.610840,388.441315 2389.024414,384.731720 2374.374756,380.899261 
	C2363.777832,378.127014 2353.181641,375.271515 2342.782715,371.852325 
	C2337.241211,370.030212 2332.892334,366.162994 2332.103516,359.794617 
	C2331.260986,352.995300 2335.209961,347.385284 2343.486328,344.938080 
	C2364.352539,338.768280 2383.279297,343.345947 2400.445068,356.248474 
	C2402.528076,357.814087 2404.473145,359.563263 2405.357910,360.296173 
	C2416.619385,349.381256 2427.434326,338.899292 2438.338867,328.330292 
	C2437.710938,327.740936 2437.007812,327.037415 2436.258057,326.386993 
	C2435.126221,325.405060 2433.994385,324.418182 2432.806885,323.505554 
	C2412.525879,307.916321 2389.337402,300.672668 2364.008789,300.024750 
	C2342.837158,299.483215 2322.415039,302.758606 2304.163330,314.367371 
	C2288.795410,324.141937 2279.326904,338.009216 2278.061523,356.418427 
	C2276.329590,381.614105 2288.572266,401.418793 2312.865967,410.599701 
	C2327.877197,416.272491 2343.849121,419.365204 2359.287842,423.958954 
	C2366.894043,426.222137 2374.688232,428.467865 2381.648926,432.140350 
	C2391.818604,437.505859 2392.194336,450.167847 2382.756348,456.759674 
	C2379.443848,459.073151 2375.365234,460.978912 2371.411621,461.573120 
	C2346.680664,465.290070 2324.798340,459.739990 2307.511719,440.578491 
	C2306.659180,439.633301 2306.249023,438.288757 2305.731445,437.315674 
	C2293.589355,447.985168 2282.556885,457.629303 2271.625244,467.387054 
	C2270.804199,468.119812 2270.707520,469.663879 2270.849121,471.320526 
M1180.262573,293.483643 
	C1180.262573,297.107422 1180.262573,300.731201 1180.262573,304.881104 
	C1171.099365,304.881104 1162.354126,304.881104 1153.331055,304.881104 
	C1153.331055,319.649597 1153.331055,333.882660 1153.331055,348.722961 
	C1162.318970,348.722961 1171.051392,348.722961 1180.268921,348.722961 
	C1180.268921,351.281860 1180.269287,353.240814 1180.268677,355.199738 
	C1180.264038,371.532776 1180.173218,387.866394 1180.279297,404.198730 
	C1180.380981,419.856842 1180.055176,435.553864 1181.048828,451.161743 
	C1182.593018,475.416656 1196.082642,491.973450 1219.063843,499.090057 
	C1243.280884,506.589233 1266.779541,503.285187 1290.305542,493.915161 
	C1287.736816,480.628326 1285.196289,467.487305 1282.613770,454.129303 
	C1278.911987,455.041718 1275.570923,456.365753 1272.154419,456.603027 
	C1265.080322,457.094360 1257.853271,457.862762 1250.897217,456.943146 
	C1242.140015,455.785461 1236.939331,449.305847 1235.987305,440.537933 
	C1235.520630,436.239624 1235.176758,431.904388 1235.161621,427.584503 
	C1235.075928,403.085205 1235.106201,378.585510 1235.097290,354.085938 
	C1235.096680,352.457886 1235.097290,350.829834 1235.097290,348.539978 
	C1251.894043,348.539978 1268.271973,348.539978 1284.587158,348.539978 
	C1284.587158,333.629303 1284.587158,319.388214 1284.587158,304.676422 
	C1267.958496,304.676422 1251.705200,304.676422 1234.999268,304.676422 
	C1234.999268,286.448792 1234.999268,268.693451 1234.999268,250.797546 
	C1216.618286,250.797546 1198.701172,250.797546 1180.257324,250.797546 
	C1180.257324,264.914948 1180.257324,278.702271 1180.262573,293.483643 
M1128.425537,488.484314 
	C1128.425537,427.441010 1128.425537,366.397736 1128.425537,305.304718 
	C1110.212769,305.304718 1092.827271,305.304718 1075.297119,305.304718 
	C1075.297119,369.726898 1075.297119,433.775513 1075.297119,497.880096 
	C1093.103638,497.880096 1110.633057,497.880096 1128.429199,497.880096 
	C1128.429199,494.795166 1128.429199,492.138397 1128.425537,488.484314 
M90.331352,417.499939 
	C90.334419,428.484467 90.296959,439.469208 90.351784,450.453461 
	C90.408485,461.813416 98.424355,469.928314 109.350540,469.793304 
	C120.261406,469.658539 128.538605,461.395966 128.547791,450.411835 
	C128.580048,411.799896 128.575790,373.187866 128.522156,334.575958 
	C128.506271,323.140839 120.269936,314.951599 109.070274,314.990753 
	C98.133568,315.028961 90.345482,323.144470 90.335884,334.615784 
	C90.313049,361.910492 90.329498,389.205231 90.331352,417.499939 
M764.038025,395.500000 
	C764.039673,374.862488 764.293579,354.219421 763.837219,333.592041 
	C763.742126,329.292419 761.891357,324.407349 759.317139,320.924774 
	C754.813171,314.831329 746.527466,313.402374 739.376282,316.137787 
	C731.787231,319.040680 727.220825,325.320740 727.212524,333.286011 
	C727.171631,372.397095 727.197998,411.508301 727.185242,450.619446 
	C727.181702,461.530243 735.266785,469.958771 745.713257,469.872528 
	C756.241150,469.785614 764.002686,461.818390 764.028687,450.922760 
	C764.071899,432.781952 764.035950,414.640930 764.038025,395.500000 
M206.047623,393.658264 
	C206.149734,411.770416 216.504684,424.940125 233.175186,428.159821 
	C249.156570,431.246429 264.677979,422.224426 270.993805,405.758270 
	C272.171539,402.687805 273.987640,402.781372 276.332153,402.779358 
	C293.657501,402.764526 310.983032,402.767670 328.307831,402.657318 
	C330.014618,402.646454 332.661957,402.449738 333.251984,401.415039 
	C335.416534,397.619293 336.896698,393.433228 338.983215,388.583557 
	C336.218597,388.406097 334.471741,388.200623 332.724396,388.196136 
	C313.899811,388.147980 295.074921,388.082916 276.250702,388.160889 
	C273.554810,388.172058 272.223267,387.513519 271.260651,384.749023 
	C265.726990,368.857544 251.212692,359.359894 235.940948,361.330231 
	C219.734741,363.421204 207.969284,375.802002 206.047623,393.658264 
M597.006958,369.483795 
	C593.771851,374.446991 590.090698,379.190094 587.487366,384.465057 
	C586.159668,387.155243 585.130066,388.198120 582.184326,388.178162 
	C564.691162,388.059540 547.196777,388.118225 529.702759,388.127075 
	C523.864502,388.130035 519.937622,391.199860 519.960266,395.708191 
	C519.981934,400.006348 523.689514,402.711914 529.599609,402.713257 
	C546.926941,402.717224 564.255249,402.811584 581.580627,402.626678 
	C585.041199,402.589752 586.493835,403.703278 587.487793,406.981232 
	C589.973938,415.180420 595.475891,421.099792 602.924194,425.147217 
	C617.153320,432.879333 635.626892,428.215851 645.557495,414.498688 
	C655.388062,400.919708 653.711487,382.653229 641.544800,370.779724 
	C629.041565,358.577789 611.855652,357.889069 597.006958,369.483795 
M1095.500122,230.073532 
	C1088.760742,230.073532 1082.021362,230.073532 1075.401001,230.073532 
	C1075.401001,246.288208 1075.401001,261.676208 1075.401001,277.034058 
	C1093.171265,277.034058 1110.583130,277.034058 1128.200439,277.034058 
	C1128.200439,261.361572 1128.200439,245.975571 1128.200439,230.071609 
	C1117.389404,230.071609 1106.944702,230.071609 1095.500122,230.073532 
z"/>
<path fill="#083361" opacity="1.000000" stroke="none" 
	d="
M1323.867554,328.000000 
	C1323.868896,295.206299 1323.868896,262.912598 1323.868896,230.044601 
	C1330.042725,230.044601 1335.822144,230.042831 1341.601440,230.044983 
	C1354.099731,230.049652 1366.600098,230.178101 1379.095215,229.981964 
	C1382.485474,229.928726 1384.409790,231.086304 1386.391846,233.813690 
	C1428.589966,291.880463 1470.904541,349.862671 1513.198486,407.859863 
	C1513.552368,408.345154 1513.932739,408.811035 1514.987793,410.172760 
	C1514.987793,349.560699 1514.987793,290.041626 1514.987793,230.237549 
	C1534.173950,230.237549 1552.925293,230.237549 1572.084473,230.237549 
	C1572.084473,319.503601 1572.084473,408.702240 1572.084473,498.398224 
	C1560.310669,498.398224 1548.671387,498.402527 1537.032104,498.396454 
	C1530.699707,498.393127 1524.338623,497.997467 1518.043945,498.478271 
	C1513.052734,498.859467 1510.344604,496.836823 1507.539062,492.937225 
	C1466.113770,435.359314 1424.518066,377.904022 1382.954590,320.425568 
	C1381.892334,318.956604 1380.737427,317.554779 1378.900879,315.187195 
	C1378.900879,376.629974 1378.900879,437.071869 1378.900879,497.948120 
	C1360.262085,497.948120 1342.251587,497.948120 1323.866211,497.948120 
	C1323.866211,441.407440 1323.866211,384.953705 1323.867554,328.000000 
z"/>
<path fill="#0EB098" opacity="1.000000" stroke="none" 
	d="
M328.037964,236.914642 
	C315.873322,246.710312 304.025909,256.319275 291.883057,266.167847 
	C290.702881,263.865540 288.968201,260.577087 287.318054,257.246796 
	C276.959198,236.340836 266.769592,215.291718 262.943756,192.029770 
	C257.193115,157.064453 268.526398,128.641785 297.443512,107.880775 
	C315.737305,94.746773 336.706879,87.531105 358.500336,82.779945 
	C411.063782,71.320671 463.637085,71.066109 515.953918,84.146362 
	C537.280334,89.478401 557.538696,97.633102 574.063171,112.829498 
	C598.293457,135.112381 605.760986,162.928131 599.583496,194.615967 
	C594.530518,220.536057 582.600891,243.841232 571.064514,266.542816 
	C557.989502,255.332001 545.038391,244.227417 531.561340,232.671906 
	C534.143250,227.000549 537.456238,220.331924 540.232117,213.446716 
	C542.778809,207.129807 545.216858,200.698303 546.881897,194.109833 
	C552.193909,173.090103 543.803955,155.575882 524.265259,146.220520 
	C508.651855,138.744583 492.106689,134.426987 475.012451,132.114395 
	C440.863007,127.494469 406.819397,127.965012 373.260254,136.127029 
	C361.387756,139.014603 349.604065,143.208084 338.596619,148.503296 
	C319.417084,157.729736 311.618347,176.225525 317.873077,196.577286 
	C321.722870,209.103790 327.044708,221.177887 331.963287,234.133850 
	C331.225708,234.664124 329.790436,235.696030 328.037964,236.914642 
z"/>
<path fill="#093361" opacity="1.000000" stroke="none" 
	d="
M1667.175293,498.873657 
	C1632.179321,486.646179 1610.318359,462.550171 1602.733765,426.941010 
	C1593.786255,384.933655 1608.017456,343.634186 1640.886353,319.698822 
	C1678.952148,291.979126 1737.328491,292.633331 1772.614014,321.611511 
	C1793.988892,339.165680 1804.080566,362.462158 1805.595825,389.665466 
	C1806.113770,398.961731 1805.678101,408.311096 1805.678101,418.173645 
	C1755.958862,418.173645 1706.248413,418.173645 1655.760986,418.173645 
	C1659.941895,437.479095 1670.300293,451.312714 1688.174927,457.535370 
	C1715.836792,467.165039 1740.330933,462.348145 1758.952026,437.423584 
	C1772.899170,446.527527 1786.786865,455.592590 1800.684692,464.664398 
	C1774.619019,501.676880 1715.427490,513.813538 1667.175293,498.873657 
M1742.478027,383.378479 
	C1745.908203,383.378479 1749.338501,383.378479 1752.765381,383.378479 
	C1752.542358,370.261688 1745.440430,357.092224 1734.656982,350.431061 
	C1717.361572,339.747253 1699.205078,339.601990 1681.286255,348.299652 
	C1667.112549,355.179413 1659.121582,367.227631 1656.248657,383.383270 
	C1684.945190,383.383270 1713.214111,383.383270 1742.478027,383.378479 
z"/>
<path fill="#0CAF96" opacity="1.000000" stroke="none" 
	d="
M1003.000000,390.001099 
	C974.560669,390.000214 946.621338,390.000214 918.207520,390.000214 
	C918.207520,426.212677 918.207520,461.947357 918.207520,497.984436 
	C899.010315,497.984436 880.288696,497.984436 861.309021,497.984436 
	C861.309021,408.916016 861.309021,320.006958 861.309021,230.714539 
	C921.682007,230.714539 982.042358,230.714539 1042.705566,230.714539 
	C1042.705566,246.045807 1042.705566,261.286285 1042.705566,277.049133 
	C1001.447205,277.049133 960.230652,277.049133 918.593750,277.049133 
	C918.593750,299.092255 918.593750,320.619141 918.593750,342.674927 
	C954.552185,342.674927 990.448059,342.674927 1026.773926,342.674927 
	C1026.773926,358.572083 1026.773926,373.948975 1026.773926,390.001953 
	C1019.040222,390.001953 1011.270081,390.001953 1003.000000,390.001099 
z"/>
<path fill="#093461" opacity="1.000000" stroke="none" 
	d="
M2053.479980,310.028687 
	C2053.365479,308.572418 2053.250732,307.116211 2053.105713,305.271301 
	C2071.406006,305.271301 2089.330811,305.271301 2108.061279,305.271301 
	C2108.061279,307.243347 2108.062012,309.326935 2108.061035,311.410522 
	C2108.046631,345.243103 2107.869873,379.077026 2108.154785,412.907074 
	C2108.211426,419.630066 2109.322510,426.544281 2111.190186,433.011353 
	C2115.433350,447.704742 2126.963135,456.543579 2142.241211,457.890045 
	C2172.579834,460.563843 2191.558105,442.286163 2191.722168,409.832825 
	C2191.885498,377.501160 2191.720703,345.167816 2191.699707,312.835205 
	C2191.698242,310.383087 2191.699463,307.931000 2191.699463,305.189941 
	C2210.510498,305.189941 2228.786621,305.189941 2247.472656,305.189941 
	C2247.472656,369.317963 2247.472656,433.517303 2247.472656,498.052612 
	C2229.888916,498.052612 2212.338135,498.052612 2194.338379,498.052612 
	C2194.338379,490.088165 2194.338379,482.344360 2194.338379,473.451569 
	C2192.488525,475.660461 2191.375732,476.993958 2190.257812,478.323242 
	C2177.208496,493.838959 2160.260742,501.725037 2140.340576,503.627014 
	C2116.991455,505.856445 2095.107422,502.363892 2076.509521,486.664459 
	C2062.614014,474.934326 2056.437988,459.286102 2054.250000,441.105225 
	C2054.716553,440.076416 2054.912842,439.762909 2054.913086,439.449280 
	C2054.947998,397.397797 2054.979492,355.346313 2054.926025,313.294952 
	C2054.924561,312.205597 2053.983154,311.117432 2053.479980,310.028687 
z"/>
<path fill="#083361" opacity="1.000000" stroke="none" 
	d="
M1889.848633,403.801086 
	C1892.864624,401.339661 1891.501465,399.495087 1889.827515,397.346436 
	C1866.393188,367.263794 1843.017212,337.135651 1819.633545,307.013580 
	C1819.346313,306.643677 1819.141968,306.209320 1818.617065,305.336273 
	C1820.136963,305.189972 1821.341187,304.974335 1822.545654,304.972961 
	C1841.541870,304.951416 1860.538696,305.041779 1879.533447,304.875793 
	C1882.779541,304.847412 1884.577026,306.005005 1886.444336,308.534149 
	C1899.192383,325.800140 1912.123535,342.930939 1925.375488,360.612427 
	C1934.051758,348.985382 1942.445679,337.688599 1950.894409,326.432983 
	C1955.594727,320.171448 1960.286621,313.897644 1965.213989,307.817108 
	C1966.303833,306.472290 1968.364136,305.137482 1969.990356,305.121887 
	C1990.149658,304.928497 2010.311279,304.978485 2030.472290,304.988922 
	C2030.727295,304.989044 2030.982056,305.290375 2031.572266,305.662567 
	C2006.742554,337.167206 1981.950806,368.623566 1957.178223,400.055695 
	C1982.130981,432.637390 2006.895874,464.973816 2032.176636,497.983765 
	C2030.109375,498.131836 2028.892212,498.293640 2027.674683,498.295044 
	C2008.845215,498.316925 1990.014160,498.196472 1971.187378,498.425598 
	C1967.391602,498.471771 1965.094604,497.208801 1962.922607,494.277863 
	C1950.826050,477.954529 1938.581177,461.741028 1926.374023,445.499756 
	C1925.091919,443.793854 1923.723999,442.152466 1921.972778,439.948944 
	C1916.250000,447.587585 1910.816040,454.862671 1905.358398,462.119934 
	C1897.051758,473.165802 1888.780762,484.239502 1880.347168,495.187805 
	C1879.276001,496.578461 1877.326172,498.160126 1875.768188,498.176178 
	C1856.119995,498.378326 1836.468994,498.308929 1815.299927,498.308929 
	C1840.534546,466.320160 1865.081421,435.203247 1889.848633,403.801086 
z"/>
<path fill="#093462" opacity="1.000000" stroke="none" 
	d="
M2270.561523,471.075684 
	C2270.707520,469.663879 2270.804199,468.119812 2271.625244,467.387054 
	C2282.556885,457.629303 2293.589355,447.985168 2305.731445,437.315674 
	C2306.249023,438.288757 2306.659180,439.633301 2307.511719,440.578491 
	C2324.798340,459.739990 2346.680664,465.290070 2371.411621,461.573120 
	C2375.365234,460.978912 2379.443848,459.073151 2382.756348,456.759674 
	C2392.194336,450.167847 2391.818604,437.505859 2381.648926,432.140350 
	C2374.688232,428.467865 2366.894043,426.222137 2359.287842,423.958954 
	C2343.849121,419.365204 2327.877197,416.272491 2312.865967,410.599701 
	C2288.572266,401.418793 2276.329590,381.614105 2278.061523,356.418427 
	C2279.326904,338.009216 2288.795410,324.141937 2304.163330,314.367371 
	C2322.415039,302.758606 2342.837158,299.483215 2364.008789,300.024750 
	C2389.337402,300.672668 2412.525879,307.916321 2432.806885,323.505554 
	C2433.994385,324.418182 2435.126221,325.405060 2436.258057,326.386993 
	C2437.007812,327.037415 2437.710938,327.740936 2438.338867,328.330292 
	C2427.434326,338.899292 2416.619385,349.381256 2405.357910,360.296173 
	C2404.473145,359.563263 2402.528076,357.814087 2400.445068,356.248474 
	C2383.279297,343.345947 2364.352539,338.768280 2343.486328,344.938080 
	C2335.209961,347.385284 2331.260986,352.995300 2332.103516,359.794617 
	C2332.892334,366.162994 2337.241211,370.030212 2342.782715,371.852325 
	C2353.181641,375.271515 2363.777832,378.127014 2374.374756,380.899261 
	C2389.024414,384.731720 2403.610840,388.441315 2416.911621,396.222687 
	C2453.080566,417.382690 2451.155273,469.037720 2417.882812,490.231628 
	C2404.899170,498.502258 2390.501465,502.333527 2375.411621,503.548401 
	C2350.789307,505.530762 2326.473633,504.653656 2303.406250,494.160980 
	C2291.101562,488.564056 2280.626709,480.465057 2270.561523,471.075684 
z"/>
<path fill="#0DAE98" opacity="1.000000" stroke="none" 
	d="
M462.603882,291.178680 
	C462.065460,289.816895 461.503296,288.463989 460.992767,287.091827 
	C458.832886,281.286682 453.565399,277.131256 448.480408,277.241272 
	C443.223236,277.355042 437.364990,282.375763 435.937347,288.444061 
	C433.355927,299.416534 431.000488,310.442169 428.019348,321.535339 
	C426.047180,318.775238 423.735565,317.400085 420.586273,318.026031 
	C412.223236,319.688354 403.550934,320.560791 395.624023,323.453156 
	C386.176544,326.900391 378.189117,333.124542 370.849548,340.275269 
	C365.138031,345.839844 363.765564,348.289001 366.876678,354.484497 
	C360.132751,353.540192 356.144165,355.545624 352.883850,361.425873 
	C350.164307,366.330750 348.488556,373.017883 344.308746,375.564575 
	C340.283173,378.017273 333.640503,376.205994 328.147644,376.212067 
	C318.318268,376.222961 308.486206,376.301208 298.661987,376.068878 
	C297.052063,376.030823 294.593018,374.945282 294.020599,373.672089 
	C287.929413,360.123749 278.870605,349.478180 265.192017,343.369843 
	C298.803925,228.021667 436.820160,182.520645 533.033569,252.564880 
	C529.375854,254.779221 525.918457,256.669495 522.349731,258.319122 
	C516.460876,261.041260 510.420990,263.445038 504.588531,266.278778 
	C496.125824,270.390411 487.535126,274.338959 479.486877,279.169830 
	C473.602173,282.702087 465.930176,283.986176 462.603882,291.178680 
z"/>
<path fill="#0DAF96" opacity="1.000000" stroke="none" 
	d="
M1180.260010,292.986633 
	C1180.257324,278.702271 1180.257324,264.914948 1180.257324,250.797546 
	C1198.701172,250.797546 1216.618286,250.797546 1234.999268,250.797546 
	C1234.999268,268.693451 1234.999268,286.448792 1234.999268,304.676422 
	C1251.705200,304.676422 1267.958496,304.676422 1284.587158,304.676422 
	C1284.587158,319.388214 1284.587158,333.629303 1284.587158,348.539978 
	C1268.271973,348.539978 1251.894043,348.539978 1235.097290,348.539978 
	C1235.097290,350.829834 1235.096680,352.457886 1235.097290,354.085938 
	C1235.106201,378.585510 1235.075928,403.085205 1235.161621,427.584503 
	C1235.176758,431.904388 1235.520630,436.239624 1235.987305,440.537933 
	C1236.939331,449.305847 1242.140015,455.785461 1250.897217,456.943146 
	C1257.853271,457.862762 1265.080322,457.094360 1272.154419,456.603027 
	C1275.570923,456.365753 1278.911987,455.041718 1282.613770,454.129303 
	C1285.196289,467.487305 1287.736816,480.628326 1290.305542,493.915161 
	C1266.779541,503.285187 1243.280884,506.589233 1219.063843,499.090057 
	C1196.082642,491.973450 1182.593018,475.416656 1181.048828,451.161743 
	C1180.055176,435.553864 1180.380981,419.856842 1180.279297,404.198730 
	C1180.173218,387.866394 1180.264038,371.532776 1180.268677,355.199738 
	C1180.269287,353.240814 1180.268921,351.281860 1180.268921,348.722961 
	C1171.051392,348.722961 1162.318970,348.722961 1153.331055,348.722961 
	C1153.331055,333.882660 1153.331055,319.649597 1153.331055,304.881104 
	C1162.354126,304.881104 1171.099365,304.881104 1180.262573,304.881104 
	C1180.262573,300.731201 1180.262573,297.107422 1180.260010,292.986633 
z"/>
<path fill="#1272C4" opacity="1.000000" stroke="none" 
	d="
M399.328217,505.184601 
	C408.981384,510.523560 417.263397,506.760345 419.595032,495.950409 
	C419.975739,494.185394 420.211761,492.389191 420.997681,490.464172 
	C425.514435,493.414734 425.312164,489.089020 425.823761,487.466156 
	C426.827393,484.282745 428.318817,481.449646 431.829224,482.310303 
	C434.834229,483.047058 436.362305,482.052582 438.332764,480.291199 
	C440.149841,478.666962 442.415070,477.516998 444.558685,476.290588 
	C449.566681,473.425354 455.213776,471.337616 459.526215,467.670044 
	C467.421173,460.955658 477.276917,458.364990 486.019775,453.510193 
	C489.673523,451.481384 493.750671,450.063812 497.057251,447.594330 
	C502.882202,443.244049 508.049316,438.009125 513.899719,433.698029 
	C518.364380,430.408051 523.900513,428.507294 528.143555,425.000580 
	C531.998535,421.814545 536.038086,420.490723 540.733704,419.939392 
	C544.300110,419.520691 547.190796,418.076019 546.986816,413.707642 
	C548.139893,413.584717 549.294617,413.475433 550.445801,413.336761 
	C560.056885,412.178711 567.541382,413.334686 571.627014,424.495575 
	C574.729370,432.970459 582.967651,438.192902 590.855652,442.772552 
	C592.270264,443.593903 593.704468,444.381500 595.393066,445.333160 
	C590.338806,461.013611 582.879822,475.274536 573.594543,488.489532 
	C538.288757,538.737427 489.141754,562.848877 428.365326,563.482544 
	C397.736481,563.801819 368.896820,555.845276 342.348602,540.239990 
	C341.359467,539.658630 340.428619,538.978088 339.243683,537.717896 
	C339.423920,533.349976 341.977081,531.777039 345.251770,530.973755 
	C348.768921,530.110962 352.661163,529.973267 355.749359,528.321777 
	C363.868256,523.980042 371.537659,518.802734 379.611115,514.367920 
	C382.017334,513.046143 385.262512,512.314148 387.957550,512.648376 
	C393.788574,513.371582 397.876923,511.065247 399.328217,505.184601 
z"/>
<path fill="#0BAF95" opacity="1.000000" stroke="none" 
	d="
M1128.427368,488.982971 
	C1128.429199,492.138397 1128.429199,494.795166 1128.429199,497.880096 
	C1110.633057,497.880096 1093.103638,497.880096 1075.297119,497.880096 
	C1075.297119,433.775513 1075.297119,369.726898 1075.297119,305.304718 
	C1092.827271,305.304718 1110.212769,305.304718 1128.425537,305.304718 
	C1128.425537,366.397736 1128.425537,427.441010 1128.427368,488.982971 
z"/>
<path fill="#0CAE97" opacity="1.000000" stroke="none" 
	d="
M139.379242,457.985229 
	C139.302216,454.492859 139.159012,451.000488 139.158096,447.508087 
	C139.145172,398.675568 139.148285,349.843018 139.155472,301.010498 
	C139.157684,286.005310 149.147980,276.124786 164.315018,276.097778 
	C179.391220,276.070923 189.817154,286.073608 189.819077,300.808929 
	C189.825241,348.307739 189.754822,395.806580 189.200882,443.652313 
	C183.910492,441.430023 179.633087,442.220367 175.515427,445.628540 
	C174.165039,446.746185 172.281128,447.227509 170.627396,447.968994 
	C162.412415,451.652222 154.268967,455.516022 145.913864,458.848846 
	C144.133743,459.558929 141.577774,458.324066 139.379242,457.985229 
z"/>
<path fill="#1273C8" opacity="1.000000" stroke="none" 
	d="
M717.196960,313.917633 
	C717.316467,319.397675 717.537048,324.877686 717.539795,330.357788 
	C717.565979,381.982788 717.561279,433.607819 717.550781,485.232819 
	C717.547913,499.307007 708.121033,508.719452 694.059570,508.719635 
	C690.731323,508.719666 687.358887,508.967712 684.082947,508.530853 
	C673.713379,507.148010 665.769043,497.774597 665.752319,486.823425 
	C665.692932,447.855133 665.741394,408.886658 666.258179,369.457825 
	C682.981628,365.450867 699.195923,361.904388 715.993958,358.230255 
	C715.993958,344.227203 715.993958,330.113586 716.027222,315.679565 
	C716.439270,314.878601 716.818115,314.398102 717.196960,313.917633 
z"/>
<path fill="#10B199" opacity="1.000000" stroke="none" 
	d="
M90.330719,416.999939 
	C90.329498,389.205231 90.313049,361.910492 90.335884,334.615784 
	C90.345482,323.144470 98.133568,315.028961 109.070274,314.990753 
	C120.269936,314.951599 128.506271,323.140839 128.522156,334.575958 
	C128.575790,373.187866 128.580048,411.799896 128.547791,450.411835 
	C128.538605,461.395966 120.261406,469.658539 109.350540,469.793304 
	C98.424355,469.928314 90.408485,461.813416 90.351784,450.453461 
	C90.296959,439.469208 90.334419,428.484467 90.330719,416.999939 
z"/>
<path fill="#1276C7" opacity="1.000000" stroke="none" 
	d="
M764.035706,396.000000 
	C764.035950,414.640930 764.071899,432.781952 764.028687,450.922760 
	C764.002686,461.818390 756.241150,469.785614 745.713257,469.872528 
	C735.266785,469.958771 727.181702,461.530243 727.185242,450.619446 
	C727.197998,411.508301 727.171631,372.397095 727.212524,333.286011 
	C727.220825,325.320740 731.787231,319.040680 739.376282,316.137787 
	C746.527466,313.402374 754.813171,314.831329 759.317139,320.924774 
	C761.891357,324.407349 763.742126,329.292419 763.837219,333.592041 
	C764.293579,354.219421 764.039673,374.862488 764.035706,396.000000 
z"/>
<path fill="#10AF98" opacity="1.000000" stroke="none" 
	d="
M206.060822,393.208740 
	C207.969284,375.802002 219.734741,363.421204 235.940948,361.330231 
	C251.212692,359.359894 265.726990,368.857544 271.260651,384.749023 
	C272.223267,387.513519 273.554810,388.172058 276.250702,388.160889 
	C295.074921,388.082916 313.899811,388.147980 332.724396,388.196136 
	C334.471741,388.200623 336.218597,388.406097 338.983215,388.583557 
	C336.896698,393.433228 335.416534,397.619293 333.251984,401.415039 
	C332.661957,402.449738 330.014618,402.646454 328.307831,402.657318 
	C310.983032,402.767670 293.657501,402.764526 276.332153,402.779358 
	C273.987640,402.781372 272.171539,402.687805 270.993805,405.758270 
	C264.677979,422.224426 249.156570,431.246429 233.175186,428.159821 
	C216.504684,424.940125 206.149734,411.770416 206.060822,393.208740 
z"/>
<path fill="#1478C7" opacity="1.000000" stroke="none" 
	d="
M597.275391,369.250092 
	C611.855652,357.889069 629.041565,358.577789 641.544800,370.779724 
	C653.711487,382.653229 655.388062,400.919708 645.557495,414.498688 
	C635.626892,428.215851 617.153320,432.879333 602.924194,425.147217 
	C595.475891,421.099792 589.973938,415.180420 587.487793,406.981232 
	C586.493835,403.703278 585.041199,402.589752 581.580627,402.626678 
	C564.255249,402.811584 546.926941,402.717224 529.599609,402.713257 
	C523.689514,402.711914 519.981934,400.006348 519.960266,395.708191 
	C519.937622,391.199860 523.864502,388.130035 529.702759,388.127075 
	C547.196777,388.118225 564.691162,388.059540 582.184326,388.178162 
	C585.130066,388.198120 586.159668,387.155243 587.487366,384.465057 
	C590.090698,379.190094 593.771851,374.446991 597.275391,369.250092 
z"/>
<path fill="#108ABB" opacity="1.000000" stroke="none" 
	d="
M586.006470,316.997040 
	C589.307556,324.944611 592.705566,332.855103 595.779968,340.889435 
	C596.140259,341.831055 595.072632,344.135162 594.068115,344.658905 
	C581.635986,351.140686 572.646423,360.741241 566.671814,373.402435 
	C566.013062,374.798462 563.394409,376.019684 561.666260,376.044678 
	C544.855225,376.287933 528.033752,376.551422 511.229187,376.178955 
	C503.288330,376.002991 497.635986,378.408295 494.464539,385.850891 
	C494.212799,386.441711 493.744751,386.944580 493.347351,387.465546 
	C493.269531,387.567596 493.053711,387.564484 492.370239,387.768402 
	C489.920837,379.782288 487.467316,371.782715 485.363953,363.355774 
	C492.830078,359.068054 499.943909,355.203735 507.063354,351.349762 
	C509.234253,350.174561 511.492096,349.143768 513.588318,347.849548 
	C531.126526,337.021332 547.465698,323.831421 568.542725,319.999115 
	C574.353760,318.942535 580.184692,317.994751 586.006470,316.997040 
z"/>
<path fill="#127EC0" opacity="1.000000" stroke="none" 
	d="
M546.529480,413.597900 
	C547.190796,418.076019 544.300110,419.520691 540.733704,419.939392 
	C536.038086,420.490723 531.998535,421.814545 528.143555,425.000580 
	C523.900513,428.507294 518.364380,430.408051 513.899719,433.698029 
	C508.049316,438.009125 502.882202,443.244049 497.057251,447.594330 
	C493.750671,450.063812 489.673523,451.481384 486.019775,453.510193 
	C477.276917,458.364990 467.421173,460.955658 459.526215,467.670044 
	C455.213776,471.337616 449.566681,473.425354 444.558685,476.290588 
	C442.415070,477.516998 440.149841,478.666962 438.332764,480.291199 
	C436.362305,482.052582 434.834229,483.047058 431.829224,482.310303 
	C428.318817,481.449646 426.827393,484.282745 425.823761,487.466156 
	C425.312164,489.089020 425.514435,493.414734 421.204529,490.142822 
	C424.086029,473.100708 427.227631,456.233612 430.413513,439.374939 
	C431.148224,435.486908 432.034546,431.627563 433.396606,427.377441 
	C434.602081,427.001190 435.271454,426.930481 435.920715,427.014587 
	C446.576019,428.395020 455.466125,425.390411 462.663605,417.097504 
	C464.037506,415.514496 467.190979,415.535278 469.450958,414.634308 
	C470.431213,414.243469 471.227722,413.391815 472.107666,412.749451 
	C473.412628,415.830658 474.792908,418.882629 476.005859,421.999664 
	C478.133362,427.466858 482.715363,431.149963 487.796967,431.327271 
	C492.320007,431.485046 498.863892,427.270813 500.561829,422.344757 
	C502.852051,415.700348 506.561035,412.618134 514.097107,413.146301 
	C524.711304,413.890259 535.409729,413.432220 546.529480,413.597900 
z"/>
<path fill="#0F95B3" opacity="1.000000" stroke="none" 
	d="
M585.972046,316.637695 
	C580.184692,317.994751 574.353760,318.942535 568.542725,319.999115 
	C547.465698,323.831421 531.126526,337.021332 513.588318,347.849548 
	C511.492096,349.143768 509.234253,350.174561 507.063354,351.349762 
	C499.943909,355.203735 492.830078,359.068054 485.360168,362.964569 
	C482.015717,353.594147 479.025177,344.187622 476.378418,334.426697 
	C478.913086,333.449036 481.322723,333.212524 483.249878,332.122803 
	C487.407043,329.772156 491.179443,326.735687 495.355377,324.424622 
	C504.293884,319.477814 513.280457,314.593018 522.448425,310.092560 
	C532.505554,305.155670 542.716553,300.511993 553.002869,296.070435 
	C558.553406,293.673798 564.401611,291.966522 570.115479,289.948242 
	C575.389526,298.724945 580.663513,307.501678 585.972046,316.637695 
z"/>
<path fill="#108AB9" opacity="1.000000" stroke="none" 
	d="
M376.866577,446.001129 
	C380.240845,455.744873 383.615082,465.488617 386.920349,475.987549 
	C386.523743,477.098053 386.237488,477.711304 385.862457,477.771515 
	C371.743744,480.037354 359.223694,486.549530 346.617371,492.723877 
	C339.271576,496.321655 332.270111,500.615936 325.034058,504.446411 
	C319.417175,507.419861 313.676941,510.160339 307.991547,513.004395 
	C307.068542,512.179688 306.145508,511.355042 305.076782,509.925720 
	C304.491119,508.969604 304.051208,508.618103 303.611328,508.266571 
	C303.611328,508.266571 303.760376,508.160553 303.682983,507.927368 
	C303.213226,507.509644 302.820892,507.325165 302.428589,507.140686 
	C297.621307,501.003937 292.814026,494.867249 288.312988,488.370941 
	C295.091431,484.795868 301.711334,481.843201 308.003296,478.307098 
	C319.190216,472.019958 330.144409,465.320129 341.269592,458.920959 
	C344.848938,456.862152 348.536011,454.873901 352.391022,453.435364 
	C360.382996,450.453125 367.787354,445.421844 376.866577,446.001129 
z"/>
<path fill="#0E96B0" opacity="1.000000" stroke="none" 
	d="
M376.878357,445.624512 
	C367.787354,445.421844 360.382996,450.453125 352.391022,453.435364 
	C348.536011,454.873901 344.848938,456.862152 341.269592,458.920959 
	C330.144409,465.320129 319.190216,472.019958 308.003296,478.307098 
	C301.711334,481.843201 295.091431,484.795868 288.231934,488.028564 
	C284.202454,482.076202 280.560333,476.106689 276.998657,469.450256 
	C279.215576,463.837555 283.670563,461.794220 288.014130,459.230835 
	C304.208679,449.673584 320.343231,439.988098 336.137512,429.788971 
	C346.011505,423.412842 356.518890,420.615448 368.074402,420.972809 
	C371.012970,429.064514 373.951569,437.156219 376.878357,445.624512 
z"/>
<path fill="#17A5AA" opacity="1.000000" stroke="none" 
	d="
M139.264359,458.442200 
	C141.577774,458.324066 144.133743,459.558929 145.913864,458.848846 
	C154.268967,455.516022 162.412415,451.652222 170.627396,447.968994 
	C172.281128,447.227509 174.165039,446.746185 175.515427,445.628540 
	C179.633087,442.220367 183.910492,441.430023 189.107056,444.056763 
	C189.616684,459.082611 190.107956,474.062836 189.661255,489.015106 
	C189.346222,499.559937 179.297394,508.471313 168.730316,508.816589 
	C166.236511,508.898071 163.738403,508.865845 161.242355,508.858704 
	C148.522308,508.822235 139.252075,499.619202 139.165573,486.853333 
	C139.102432,477.535645 139.150803,468.217224 139.264359,458.442200 
z"/>
<path fill="#117DC0" opacity="1.000000" stroke="none" 
	d="
M308.127991,513.311157 
	C313.676941,510.160339 319.417175,507.419861 325.034058,504.446411 
	C332.270111,500.615936 339.271576,496.321655 346.617371,492.723877 
	C359.223694,486.549530 371.743744,480.037354 385.862457,477.771515 
	C386.237488,477.711304 386.523743,477.098053 386.930176,476.367279 
	C389.361877,482.707672 391.538361,489.493042 394.146912,496.108032 
	C395.336273,499.124084 397.378784,501.803680 399.181274,504.910248 
	C397.876923,511.065247 393.788574,513.371582 387.957550,512.648376 
	C385.262512,512.314148 382.017334,513.046143 379.611115,514.367920 
	C371.537659,518.802734 363.868256,523.980042 355.749359,528.321777 
	C352.661163,529.973267 348.768921,530.110962 345.251770,530.973755 
	C341.977081,531.777039 339.423920,533.349976 339.009399,537.454346 
	C328.756165,529.750427 318.510284,521.684143 308.127991,513.311157 
z"/>
<path fill="#0DB096" opacity="1.000000" stroke="none" 
	d="
M1096.000000,230.072571 
	C1106.944702,230.071609 1117.389404,230.071609 1128.200439,230.071609 
	C1128.200439,245.975571 1128.200439,261.361572 1128.200439,277.034058 
	C1110.583130,277.034058 1093.171265,277.034058 1075.401001,277.034058 
	C1075.401001,261.676208 1075.401001,246.288208 1075.401001,230.073532 
	C1082.021362,230.073532 1088.760742,230.073532 1096.000000,230.072571 
z"/>
<path fill="#10A2AA" opacity="1.000000" stroke="none" 
	d="
M368.054993,420.585754 
	C356.518890,420.615448 346.011505,423.412842 336.137512,429.788971 
	C320.343231,439.988098 304.208679,449.673584 288.014130,459.230835 
	C283.670563,461.794220 279.215576,463.837555 276.935760,469.114136 
	C273.063324,461.529266 269.334229,453.593536 265.441376,445.309296 
	C267.653381,443.924164 269.289154,442.892334 270.932190,441.872284 
	C280.669434,435.826813 288.206512,427.787506 292.723633,417.189423 
	C293.957336,414.294922 295.573853,413.337860 298.704346,413.367615 
	C313.693024,413.510071 328.694519,413.052399 343.670105,413.508423 
	C351.071228,413.733765 356.291199,411.585083 359.389984,404.783295 
	C359.729309,404.038452 360.281036,403.388306 360.755066,402.708801 
	C360.838898,402.588623 361.026001,402.540558 361.702667,402.145599 
	C363.836670,408.229034 365.936096,414.213867 368.054993,420.585754 
z"/>
<path fill="#0E9FAB" opacity="1.000000" stroke="none" 
	d="
M570.027100,289.616028 
	C564.401611,291.966522 558.553406,293.673798 553.002869,296.070435 
	C542.716553,300.511993 532.505554,305.155670 522.448425,310.092560 
	C513.280457,314.593018 504.293884,319.477814 495.355377,324.424622 
	C491.179443,326.735687 487.407043,329.772156 483.249878,332.122803 
	C481.322723,333.212524 478.913086,333.449036 476.375305,334.037964 
	C474.285858,328.640717 472.543243,323.277863 471.028198,317.366638 
	C470.878601,316.213104 470.501434,315.607910 470.124268,315.002716 
	C470.028931,314.862610 469.933594,314.722473 470.128174,314.145325 
	C471.148285,313.047882 471.798157,312.257690 472.621460,311.747467 
	C479.790955,307.304382 486.962616,302.863373 494.193237,298.520966 
	C498.855438,295.721069 503.483917,292.812408 508.364990,290.441315 
	C516.671326,286.406158 525.170349,282.768311 533.577881,278.940338 
	C540.171753,275.938080 546.749634,272.900787 553.334656,269.879028 
	C558.869385,276.347260 564.404114,282.815491 570.027100,289.616028 
z"/>
<path fill="#1089BC" opacity="1.000000" stroke="none" 
	d="
M717.297791,313.567017 
	C716.818115,314.398102 716.439270,314.878601 715.615479,315.679535 
	C707.490356,318.810699 699.850159,321.737152 692.119446,324.401276 
	C683.444580,327.390869 674.687927,330.143250 665.966797,332.998840 
	C665.903076,321.383484 665.435303,309.752502 665.883057,298.156891 
	C666.385071,285.157257 680.466309,274.790588 694.823608,276.176331 
	C709.198303,277.563751 718.986755,289.371704 717.220642,303.158020 
	C717.096313,304.128387 717.205139,305.128632 716.905151,306.726776 
	C716.801819,308.578430 716.998962,309.818268 717.196045,311.058136 
	C717.263550,311.777557 717.331055,312.496979 717.297791,313.567017 
z"/>
<path fill="#0EA7A3" opacity="1.000000" stroke="none" 
	d="
M553.172363,269.564087 
	C546.749634,272.900787 540.171753,275.938080 533.577881,278.940338 
	C525.170349,282.768311 516.671326,286.406158 508.364990,290.441315 
	C503.483917,292.812408 498.855438,295.721069 494.193237,298.520966 
	C486.962616,302.863373 479.790955,307.304382 472.621460,311.747467 
	C471.798157,312.257690 471.148285,313.047882 470.122620,313.891174 
	C467.488251,306.692413 465.149261,299.310791 462.707092,291.553925 
	C465.930176,283.986176 473.602173,282.702087 479.486877,279.169830 
	C487.535126,274.338959 496.125824,270.390411 504.588531,266.278778 
	C510.420990,263.445038 516.460876,261.041260 522.349731,258.319122 
	C525.918457,256.669495 529.375854,254.779221 533.255615,252.836182 
	C540.088684,258.199921 546.549316,263.724548 553.172363,269.564087 
z"/>
<path fill="#0F7CC4" opacity="1.000000" stroke="none" 
	d="
M665.866882,333.458771 
	C674.687927,330.143250 683.444580,327.390869 692.119446,324.401276 
	C699.850159,321.737152 707.490356,318.810699 715.582275,316.000000 
	C715.993958,330.113586 715.993958,344.227203 715.993958,358.230255 
	C699.195923,361.904388 682.981628,365.450867 666.358643,368.997925 
	C665.887634,366.953400 665.825195,364.908325 666.095947,362.289673 
	C666.273987,361.142029 666.118896,360.567993 665.963745,359.993958 
	C665.898132,351.302216 665.832520,342.610443 665.866882,333.458771 
z"/>
<path fill="#0EA7A2" opacity="1.000000" stroke="none" 
	d="
M367.141052,354.665466 
	C363.765564,348.289001 365.138031,345.839844 370.849548,340.275269 
	C378.189117,333.124542 386.176544,326.900391 395.624023,323.453156 
	C403.550934,320.560791 412.223236,319.688354 420.586273,318.026031 
	C423.735565,317.400085 426.047180,318.775238 427.782959,321.832367 
	C426.069824,331.244781 424.061676,340.449829 421.491730,349.889679 
	C418.859772,349.973877 416.583801,349.199921 414.761963,349.801392 
	C410.863678,351.088470 407.219818,353.131714 403.436249,354.783844 
	C397.156769,357.525848 390.854187,360.215302 384.551147,362.902985 
	C381.967499,364.004700 379.357391,365.044403 376.759308,366.112335 
	C375.005127,361.224731 372.542999,356.924927 367.141052,354.665466 
z"/>
<path fill="#108DBA" opacity="1.000000" stroke="none" 
	d="
M472.122498,412.561279 
	C471.227722,413.391815 470.431213,414.243469 469.450958,414.634308 
	C467.190979,415.535278 464.037506,415.514496 462.663605,417.097504 
	C455.466125,425.390411 446.576019,428.395020 435.920715,427.014587 
	C435.271454,426.930481 434.602081,427.001190 433.520508,427.000610 
	C435.883484,413.436249 438.660217,399.869476 441.458405,386.307159 
	C442.125519,383.073853 442.864471,379.855438 444.131897,376.346375 
	C446.611542,375.641388 448.641327,375.488770 450.425995,374.746613 
	C455.015350,372.838074 457.058472,373.856812 457.475647,378.365723 
	C457.554718,379.220306 458.593323,379.986084 459.189209,380.792786 
	C459.788239,380.162720 460.625458,379.628998 460.928711,378.879303 
	C461.349213,377.839783 461.368500,376.637970 461.559570,375.505646 
	C465.046783,386.744202 468.533966,397.982788 471.786926,409.757019 
	C471.711548,410.865631 471.870453,411.438568 472.029327,412.011475 
	C472.029327,412.011475 472.137299,412.373138 472.122498,412.561279 
z"/>
<path fill="#0FA0AD" opacity="1.000000" stroke="none" 
	d="
M376.839417,366.480835 
	C379.357391,365.044403 381.967499,364.004700 384.551147,362.902985 
	C390.854187,360.215302 397.156769,357.525848 403.436249,354.783844 
	C407.219818,353.131714 410.863678,351.088470 414.761963,349.801392 
	C416.583801,349.199921 418.859772,349.973877 421.361694,350.231750 
	C419.210999,362.311737 416.628571,374.284424 413.516479,386.692261 
	C410.571198,387.339966 408.148285,387.492249 405.741882,387.781586 
	C403.239105,388.082489 400.614868,388.135712 398.289276,388.976471 
	C394.373566,390.392029 390.651855,392.344238 386.848541,394.070740 
	C386.568146,393.571259 386.287781,393.071747 386.242645,392.116638 
	C386.059875,391.107483 385.641876,390.553955 385.223877,390.000427 
	C382.455780,382.283417 379.687683,374.566376 376.839417,366.480835 
z"/>
<path fill="#1297B5" opacity="1.000000" stroke="none" 
	d="
M386.859070,394.457977 
	C390.651855,392.344238 394.373566,390.392029 398.289276,388.976471 
	C400.614868,388.135712 403.239105,388.082489 405.741882,387.781586 
	C408.148285,387.492249 410.571198,387.339966 413.369873,387.063965 
	C410.254791,403.238068 406.756714,419.475677 403.258636,435.713287 
	C402.426178,435.735474 401.593719,435.757690 400.761261,435.779877 
	C396.130707,422.134979 391.500153,408.490082 386.859070,394.457977 
z"/>
<path fill="#169EBB" opacity="1.000000" stroke="none" 
	d="
M461.554474,375.210876 
	C461.368500,376.637970 461.349213,377.839783 460.928711,378.879303 
	C460.625458,379.628998 459.788239,380.162720 459.189209,380.792786 
	C458.593323,379.986084 457.554718,379.220306 457.475647,378.365723 
	C457.058472,373.856812 455.015350,372.838074 450.425995,374.746613 
	C448.641327,375.488770 446.611542,375.641388 444.339478,376.029999 
	C445.637329,367.541779 447.230957,359.073792 449.013611,350.645813 
	C449.239380,349.578461 450.456360,348.720764 451.214111,347.765930 
	C452.154907,348.734100 453.578308,349.543030 453.958862,350.696075 
	C456.610046,358.729492 459.045074,366.834259 461.554474,375.210876 
z"/>
<path fill="#002052" opacity="1.000000" stroke="none" 
	d="
M2053.374023,310.484314 
	C2053.983154,311.117432 2054.924561,312.205597 2054.926025,313.294952 
	C2054.979492,355.346313 2054.947998,397.397797 2054.913086,439.449280 
	C2054.912842,439.762909 2054.716553,440.076416 2054.322266,440.688080 
	C2053.776611,438.180054 2053.301025,435.374176 2053.297607,432.567780 
	C2053.250488,392.025208 2053.266602,351.482544 2053.374023,310.484314 
z"/>
<path fill="#1297B5" opacity="1.000000" stroke="none" 
	d="
M385.215576,390.278442 
	C385.641876,390.553955 386.059875,391.107483 386.261566,391.821228 
	C385.765930,391.506470 385.486603,391.031464 385.215576,390.278442 
z"/>
<path fill="#127EC0" opacity="1.000000" stroke="none" 
	d="
M472.159027,411.831909 
	C471.870453,411.438568 471.711548,410.865631 471.780731,410.145752 
	C472.102142,410.549957 472.195435,411.101166 472.159027,411.831909 
z"/>
<path fill="#0EA7A3" opacity="1.000000" stroke="none" 
	d="
M470.100342,315.290466 
	C470.501434,315.607910 470.878601,316.213104 470.996796,316.966309 
	C470.517365,316.602295 470.296906,316.090271 470.100342,315.290466 
z"/>
<path fill="#0F7CC4" opacity="1.000000" stroke="none" 
	d="
M717.293945,310.652527 
	C716.998962,309.818268 716.801819,308.578430 716.903137,307.136047 
	C717.264954,308.038025 717.328430,309.142456 717.293945,310.652527 
z"/>
<path fill="#1273C8" opacity="1.000000" stroke="none" 
	d="
M665.868042,360.325073 
	C666.118896,360.567993 666.273987,361.142029 666.198364,361.861603 
	C665.902588,361.556824 665.837463,361.106506 665.868042,360.325073 
z"/>
<path fill="#117DC0" opacity="1.000000" stroke="none" 
	d="
M303.690552,508.540466 
	C304.051208,508.618103 304.491119,508.969604 304.970306,509.631348 
	C304.596313,509.565826 304.183044,509.190094 303.690552,508.540466 
z"/>
<path fill="#117DC0" opacity="1.000000" stroke="none" 
	d="
M302.578247,507.423706 
	C302.820892,507.325165 303.213226,507.509644 303.703156,508.016541 
	C303.443146,508.128174 303.085510,507.917450 302.578247,507.423706 
z"/>
<path fill="none" opacity="1.000000" stroke="none" 
	d="
M1741.980591,383.380859 
	C1713.214111,383.383270 1684.945190,383.383270 1656.248657,383.383270 
	C1659.121582,367.227631 1667.112549,355.179413 1681.286255,348.299652 
	C1699.205078,339.601990 1717.361572,339.747253 1734.656982,350.431061 
	C1745.440430,357.092224 1752.542358,370.261688 1752.765381,383.378479 
	C1749.338501,383.378479 1745.908203,383.378479 1741.980591,383.380859 
z"/>
</svg>